<?xml version="1.0" encoding="UTF-8"?>
<svg width="1000" height="1000" viewBox="0 0 1000 1000" xmlns="http://www.w3.org/2000/svg">
  <defs>
    <linearGradient id="blueGradient" x1="0%" y1="0%" x2="100%" y2="100%">
      <stop offset="0%" stop-color="#4285F4"/>
      <stop offset="100%" stop-color="#34A0F2"/>
    </linearGradient>
    <linearGradient id="silverGradient" x1="0%" y1="0%" x2="100%" y2="100%">
      <stop offset="0%" stop-color="#E0E0E0"/>
      <stop offset="100%" stop-color="#C0C0C0"/>
    </linearGradient>
  </defs>
  
  <!-- Outer circle -->
  <circle cx="500" cy="500" r="480" fill="#1A2B3C"/>
  
  <!-- Blue S shape -->
  <path d="M500,150 
           C350,150 250,250 250,400 
           C250,550 350,600 500,650 
           C650,700 750,750 750,900 
           C750,1050 650,1150 500,1150 
           C350,1150 250,1050 250,900 
           L150,900 
           C150,1100 300,1250 500,1250 
           C700,1250 850,1100 850,900 
           C850,700 700,600 500,550 
           C300,500 150,450 150,250 
           C150,50 300,-50 500,-50 
           C700,-50 850,50 850,250 
           L750,250 
           C750,100 650,150 500,150 Z" 
        fill="url(#blueGradient)" transform="scale(0.8) translate(125, 125)"/>
  
  <!-- Silver S shape -->
  <path d="M500,200 
           C380,200 300,280 300,400 
           C300,520 380,570 500,620 
           C620,670 700,720 700,840 
           C700,960 620,1040 500,1040 
           C380,1040 300,960 300,840 
           L250,840 
           C250,990 360,1090 500,1090 
           C640,1090 750,990 750,840 
           C750,690 640,620 500,570 
           C360,520 250,470 250,320 
           C250,170 360,70 500,70 
           C640,70 750,170 750,320 
           L700,320 
           C700,200 620,200 500,200 Z" 
        fill="url(#silverGradient)" transform="scale(0.8) translate(125, 125)"/>
</svg> 