<?xml version="1.0" standalone="no"?>
<!DOCTYPE svg PUBLIC "-//W3C//DTD SVG 20010904//EN"
 "http://www.w3.org/TR/2001/REC-SVG-20010904/DTD/svg10.dtd">
<svg version="1.0" xmlns="http://www.w3.org/2000/svg"
 width="1000.000000pt" height="1000.000000pt" viewBox="0 0 1000.000000 1000.000000"
 preserveAspectRatio="xMidYMid meet">
<metadata>
Created by potrace 1.14, written by Peter Selinger 2001-2017
</metadata>
<g transform="translate(0.000000,1000.000000) scale(0.100000,-0.100000)"
fill="#000000" stroke="none">
  <path d="M4800 8000 c-1000 -100 -1800 -900 -1800 -1900 0 -600 300 -1000 900 -1200
  600 -200 1200 -300 1800 -300 600 0 1200 100 1800 300 600 200 900 600 900 1200
  0 1000 -800 1800 -1800 1900 -300 30 -600 30 -900 0z"/>
  <path d="M4800 4000 c-1000 -100 -1800 -900 -1800 -1900 0 -600 300 -1000 900 -1200
  600 -200 1200 -300 1800 -300 600 0 1200 100 1800 300 600 200 900 600 900 1200
  0 1000 -800 1800 -1800 1900 -300 30 -600 30 -900 0z"/>
</g>
</svg> 